<svg xmlns="http://www.w3.org/2000/svg" viewBox="0 0 217.45 41.35"><defs><style>.cls-1{fill:#1da1f2;}</style></defs><title>Element 1</title><g id="Layer_2" data-name="Layer 2"><g id="Layer_1-2" data-name="Layer 1"><path d="M217.45,38.65V36.2h-15.8v2.45h15.8m-30.9-22.4a6.26,6.26,0,0,0-2.45,1.8,8.16,8.16,0,0,0-1.55,2.8,13.19,13.19,0,0,0-.5,3.7,12.34,12.34,0,0,0,.5,3.65A8.16,8.16,0,0,0,184.1,31a6.26,6.26,0,0,0,2.45,1.8,8.2,8.2,0,0,0,6.4,0A6.26,6.26,0,0,0,195.4,31,8.16,8.16,0,0,0,197,28.2a11.11,11.11,0,0,0,.55-3.65,11.86,11.86,0,0,0-.55-3.7,8.16,8.16,0,0,0-1.55-2.8,6.26,6.26,0,0,0-2.45-1.8,8.83,8.83,0,0,0-6.4,0m1.2,2a5.89,5.89,0,0,1,4,0,3.92,3.92,0,0,1,1.55.95,5.58,5.58,0,0,1,1.35,4.1v2.45a8.45,8.45,0,0,1-.3,2.4,3.9,3.9,0,0,1-1,1.7,5.5,5.5,0,0,1-7.1,0,3.9,3.9,0,0,1-1-1.7,8.45,8.45,0,0,1-.3-2.4V23.3a8.75,8.75,0,0,1,.3-2.4,4.36,4.36,0,0,1,1-1.7,3.92,3.92,0,0,1,1.55-.95M164.4,12.7a12.37,12.37,0,0,0-1.55,3.75,23.43,23.43,0,0,0-.5,5.1q0,5.74,2.05,8.85a7.15,7.15,0,0,0,6.3,3.05,7.54,7.54,0,0,0,2.75-.45,5.39,5.39,0,0,0,2-1.15,6.42,6.42,0,0,0,1.4-1.6l1-1.85-2.4-1.1-.65,1.45a5.29,5.29,0,0,1-.95,1.15,3.81,3.81,0,0,1-1.3.85,4.84,4.84,0,0,1-1.8.3,5.06,5.06,0,0,1-2.4-.55A4,4,0,0,1,166.65,29a10,10,0,0,1-1.35-5.55V19.65a10.13,10.13,0,0,1,1.35-5.55,4,4,0,0,1,1.65-1.55,5.06,5.06,0,0,1,2.4-.55,4.28,4.28,0,0,1,1.8.35,3.3,3.3,0,0,1,1.3.8,4.75,4.75,0,0,1,.95,1.2l.65,1.4,2.4-1.1-1-1.8a7.22,7.22,0,0,0-1.4-1.65,6.41,6.41,0,0,0-2-1.15,7.54,7.54,0,0,0-2.75-.45,7.1,7.1,0,0,0-6.3,3.1M146.15,8.6H143.5V33.05h2.65V21.25a2.86,2.86,0,0,1,.35-1.45,2.91,2.91,0,0,1,.95-1.05,4.35,4.35,0,0,1,1.35-.6,6.16,6.16,0,0,1,1.55-.2,3.76,3.76,0,0,1,3,1.15,4.07,4.07,0,0,1,.75,1.45,6.2,6.2,0,0,1,.3,2.05V33.05H157V22.15a9.06,9.06,0,0,0-.4-2.8,6.12,6.12,0,0,0-1.2-2.05,5.72,5.72,0,0,0-4.3-1.65,6.09,6.09,0,0,0-1.85.25,4.11,4.11,0,0,0-1.35.7,3.66,3.66,0,0,0-1,1l-.65,1.2h-.1V8.6M127.75,16a6.64,6.64,0,0,0-2.2.95,5.16,5.16,0,0,0-1.45,1.6,4.5,4.5,0,0,0-.5,2.2,3.84,3.84,0,0,0,.6,2.25,4,4,0,0,0,1.45,1.35,5.16,5.16,0,0,0,1.85.75l5.75,1,.95.45a1.81,1.81,0,0,1,.7.7,2.21,2.21,0,0,1,.25,1.1,2.41,2.41,0,0,1-.35,1.3,2.24,2.24,0,0,1-1,.9,5.22,5.22,0,0,1-1.45.55,7.56,7.56,0,0,1-1.8.2,7.94,7.94,0,0,1-3.5-.7,8.79,8.79,0,0,1-2.65-2l-1.8,1.55a9.76,9.76,0,0,0,3.3,2.45,10.88,10.88,0,0,0,4.6.9,8.75,8.75,0,0,0,5.2-1.4,4.68,4.68,0,0,0,1.5-1.65,5,5,0,0,0,.5-2.25,3.84,3.84,0,0,0-.6-2.25,4.1,4.1,0,0,0-1.4-1.35,5.63,5.63,0,0,0-1.9-.75l-5.75-1.05-.95-.4a1.47,1.47,0,0,1-.65-.7,2,2,0,0,1-.3-1.1,2.19,2.19,0,0,1,.3-1.15,1.78,1.78,0,0,1,.8-.85,5.58,5.58,0,0,1,3.1-.7,8.79,8.79,0,0,1,1.95.2l1.5.5,1.1.7.75.75,1.7-1.65a9.1,9.1,0,0,0-2.9-2,10,10,0,0,0-1.85-.55,14.51,14.51,0,0,0-2.15-.15,11.76,11.76,0,0,0-2.75.3m-20.2,0a8.35,8.35,0,0,0-1.9.8,5.92,5.92,0,0,0-2.25,2.4l1.8,1.3a4.83,4.83,0,0,1,1.7-1.8,5.1,5.1,0,0,1,2.8-.7,5.43,5.43,0,0,1,1.75.25,3.1,3.1,0,0,1,1.3.7,3.49,3.49,0,0,1,1,2.8V23.3h-3.65c-2.57,0-4.43.43-5.6,1.3a4.34,4.34,0,0,0-1.7,3.65,4.79,4.79,0,0,0,1.55,3.8,6.24,6.24,0,0,0,4.25,1.4A5.83,5.83,0,0,0,112,32.6a4.33,4.33,0,0,0,1-1,6.2,6.2,0,0,0,.75-1.3H114a3.55,3.55,0,0,0,.85,1.95,2.69,2.69,0,0,0,2.2.8h1.8V30.8h-2.4V21.4A7,7,0,0,0,116,19a4.75,4.75,0,0,0-1.35-1.8,7.06,7.06,0,0,0-4.75-1.5,10,10,0,0,0-2.35.25m2.6,9.4h3.65v2.8a2.49,2.49,0,0,1-.35,1.25,3.52,3.52,0,0,1-1,1A5.25,5.25,0,0,1,111,31a6.42,6.42,0,0,1-1.85.25,4.27,4.27,0,0,1-2.6-.7,2.26,2.26,0,0,1-1-2v-.7a2.09,2.09,0,0,1,1.1-1.9,6.88,6.88,0,0,1,3.45-.65m-16-14.85A7.09,7.09,0,0,0,91.6,10H83.75v23h8.8a6.27,6.27,0,0,0,2.5-.5,6.2,6.2,0,0,0,2-1.4A6.07,6.07,0,0,0,98.3,29a7.36,7.36,0,0,0,.45-2.6,5,5,0,0,0-1.25-3.65A6.24,6.24,0,0,0,94.3,21v-.1a6.39,6.39,0,0,0,1.45-.65A5.75,5.75,0,0,0,96.9,19.2a4.79,4.79,0,0,0,1-3.25,5.64,5.64,0,0,0-1.7-4.3,5.07,5.07,0,0,0-2-1.2m.8,6.4a3.34,3.34,0,0,1-.25,1.4,2.57,2.57,0,0,1-.75,1,4.25,4.25,0,0,1-2.7.75H86.5V12.45h4.8a4.25,4.25,0,0,1,2.7.75,2.87,2.87,0,0,1,1,2.4v1.25M91.75,22.3a6.78,6.78,0,0,1,1.7.2,3.39,3.39,0,0,1,1.3.65,3.23,3.23,0,0,1,1.1,2.65v1.35a3.15,3.15,0,0,1-1.1,2.65,3.79,3.79,0,0,1-1.3.6,5.28,5.28,0,0,1-1.7.25H86.5V22.3h5.25M76.65,12a6.67,6.67,0,0,0-2.3-1.7A7.94,7.94,0,0,0,71,9.6l-1.85.2a6.49,6.49,0,0,0-1.6.5,5.58,5.58,0,0,0-2.45,2.25,12.24,12.24,0,0,0-1.5,4.2,52.06,52.06,0,0,0-.5,6.4,34.1,34.1,0,0,0,.45,6,12,12,0,0,0,1.5,4.25,6.29,6.29,0,0,0,1.2,1.5,5.33,5.33,0,0,0,1.5,1,9.27,9.27,0,0,0,4.2.85h4.1v-2.1H72a6.14,6.14,0,0,1-3.2-.75,5.07,5.07,0,0,1-2-1.95,8.05,8.05,0,0,1-1-2.9,23.27,23.27,0,0,1-.25-3.55V21.25q0-5,1.25-7.25a4.15,4.15,0,0,1,1.7-1.7,5.11,5.11,0,0,1,2.5-.55,6.09,6.09,0,0,1,2.3.4,3.43,3.43,0,0,1,1.5,1.2,5.57,5.57,0,0,1,.9,1.9,9.52,9.52,0,0,1,.3,2.5v.8h-.2l-.4-.8L74.8,17l-1-.5a4.28,4.28,0,0,0-3.1.2,4.3,4.3,0,0,0-1.4,1.3q-1.2,1.7-1.2,5.4c0,2.43.4,4.22,1.2,5.35A3.84,3.84,0,0,0,70.75,30a3.59,3.59,0,0,0,1.8.45,3.28,3.28,0,0,0,2.25-.7,4.27,4.27,0,0,0,1-1.6h.2v1.9h2.3V17.75a12.25,12.25,0,0,0-.4-3.2,6.85,6.85,0,0,0-1.3-2.6m-1.3,7a2.63,2.63,0,0,1,.7,2v5a2.45,2.45,0,0,1-.7,1.9,2.81,2.81,0,0,1-1.9.65,2.46,2.46,0,0,1-2.1-.95,3.38,3.38,0,0,1-.55-1.25,7.68,7.68,0,0,1-.2-1.9v-2a8.08,8.08,0,0,1,.2-1.9,3.9,3.9,0,0,1,.55-1.25,2.46,2.46,0,0,1,2.1-.95A2.81,2.81,0,0,1,75.35,18.9Z"/><path class="cls-1" d="M3.55,2a10.17,10.17,0,0,0-1.4,5.2,10.33,10.33,0,0,0,1.25,5,10.09,10.09,0,0,0,3.4,3.7,9.87,9.87,0,0,1-4.75-1.3v.15a10.13,10.13,0,0,0,2.4,6.65,10,10,0,0,0,6,3.55,9.84,9.84,0,0,1-4.75.2,10.42,10.42,0,0,0,3.7,5.15,10,10,0,0,0,6,2.1,19.41,19.41,0,0,1-6,3.25A20.44,20.44,0,0,1,2.5,36.8,19.42,19.42,0,0,1,0,36.65,30.31,30.31,0,0,0,7.55,40.1,28.91,28.91,0,0,0,16,41.35a30.05,30.05,0,0,0,12.75-2.7,28,28,0,0,0,9.3-7,29.62,29.62,0,0,0,5.7-9.55,29.3,29.3,0,0,0,2-10.45c0-.43,0-.88-.05-1.35a20.1,20.1,0,0,0,5.2-5.4,21.31,21.31,0,0,1-6,1.65A11.21,11.21,0,0,0,47.7,4.1,9.91,9.91,0,0,0,49.45.8a21.58,21.58,0,0,1-6.6,2.5A10.3,10.3,0,0,0,39.45.9,10.23,10.23,0,0,0,35.2,0a9.91,9.91,0,0,0-7.35,3.1,10,10,0,0,0-3.05,7.35,11.51,11.51,0,0,0,.25,2.4A29.64,29.64,0,0,1,13,9.6,29.91,29.91,0,0,1,3.55,2Z"/></g></g></svg>